<svg width="187" height="220" viewBox="0 0 187 220" fill="none" xmlns="http://www.w3.org/2000/svg">
<g clip-path="url(#clip0_744_1918)">
<path d="M132.479 184.62L134.321 220C134.321 220 56.3768 145.814 46.6663 124.108C36.9558 102.402 55.2344 48.709 55.2344 48.709L95.7901 70.986L132.479 184.62Z" fill="#9F616A"/>
<path d="M12.9651 33.8574L0.969744 34.9998C0.969744 34.9998 -5.31354 48.7088 14.1075 49.8512L12.9651 33.8574Z" fill="#9F616A"/>
<path d="M12.9651 54.9922L0.969744 56.1346C0.969744 56.1346 -5.31354 69.8436 14.1075 70.986L12.9651 54.9922Z" fill="#9F616A"/>
<path d="M12.9651 77.8403L0.969744 78.9827C0.969744 78.9827 -5.31354 92.6917 14.1075 93.8341L12.9651 77.8403Z" fill="#9F616A"/>
<path d="M16.3923 100.688L4.39698 101.831C4.39698 101.831 -1.88631 115.54 17.5347 116.682L16.3923 100.688Z" fill="#9F616A"/>
<path d="M7.12524 39.3651H8.03542V14.4311C8.03542 12.536 8.40869 10.6594 9.13392 8.90858C9.85915 7.15771 10.9221 5.56684 12.2622 4.22678C13.6022 2.88673 15.1931 1.82374 16.944 1.09851C18.6948 0.373277 20.5714 1.45196e-06 22.4665 0H75.2925C77.1877 -3.87179e-06 79.0642 0.373265 80.8151 1.09849C82.5659 1.82372 84.1568 2.88671 85.4969 4.22676C86.8369 5.5668 87.8999 7.15767 88.6252 8.90853C89.3504 10.6594 89.7237 12.536 89.7237 14.4311V151.221C89.7237 153.116 89.3504 154.993 88.6252 156.743C87.8999 158.494 86.837 160.085 85.4969 161.425C84.1569 162.765 82.566 163.828 80.8151 164.553C79.0643 165.279 77.1877 165.652 75.2926 165.652H22.4666C18.6392 165.652 14.9686 164.132 12.2622 161.425C9.55587 158.719 8.03544 155.048 8.03543 151.221V57.1135H7.12524V39.3651Z" fill="#3F3D56"/>
<path d="M21.8843 3.75441H28.7798C28.4627 4.53185 28.3416 5.37535 28.4273 6.2106C28.513 7.04584 28.8028 7.8472 29.2711 8.54408C29.7394 9.24096 30.372 9.81197 31.113 10.2068C31.854 10.6016 32.6807 10.8082 33.5203 10.8083H63.7837C64.6233 10.8082 65.45 10.6017 66.191 10.2068C66.932 9.81198 67.5646 9.24097 68.0329 8.54409C68.5013 7.84721 68.791 7.04585 68.8767 6.2106C68.9624 5.37535 68.8413 4.53184 68.5242 3.75439H74.9647C77.8229 3.75439 80.5641 4.88982 82.5852 6.91089C84.6062 8.93197 85.7417 11.6731 85.7417 14.5314V151.12C85.7417 152.536 85.4629 153.937 84.9213 155.245C84.3797 156.552 83.5859 157.74 82.5852 158.741C81.5844 159.742 80.3964 160.536 79.0889 161.077C77.7813 161.619 76.3799 161.897 74.9647 161.897H21.8843C20.469 161.897 19.0676 161.619 17.7601 161.077C16.4526 160.536 15.2645 159.742 14.2638 158.741C13.263 157.74 12.4692 156.552 11.9276 155.245C11.386 153.937 11.1073 152.536 11.1073 151.12V14.5314C11.1073 13.1161 11.386 11.7147 11.9276 10.4072C12.4692 9.09968 13.263 7.91164 14.2638 6.9109C15.2645 5.91017 16.4526 5.11634 17.7601 4.57475C19.0676 4.03316 20.469 3.7544 21.8843 3.75441Z" fill="white"/>
<path d="M59.7969 42.02H37.0521V47.5085H59.7969V42.02Z" fill="#2F9E41"/>
<path d="M60.8797 65.6035H35.9693V71.092H60.8797V65.6035Z" fill="#E5E5E5"/>
<path d="M76.2233 77.394H20.6256V82.8826H76.2233V77.394Z" fill="#E5E5E5"/>
<path d="M76.2233 89.1836H20.6256V94.6721H76.2233V89.1836Z" fill="#E5E5E5"/>
<path d="M186.286 203.047L122.351 130.106L120.066 83.2667L96.0757 43.2822L89.2212 26.146C89.2212 26.146 73.2274 27.8596 86.3652 60.4184L91.7916 77.8402C86.9001 88.3758 84.366 99.8518 84.366 111.468V151.389C84.366 160.79 129.162 211.994 134.377 219.815L186.286 203.047Z" fill="#9F616A"/>
<path opacity="0.2" d="M91.102 46.6712L95.8713 44.3273L95.7088 43.9963L91.3021 46.1622L84.6499 28.7217L84.3057 28.8533L91.102 46.6712Z" fill="black"/>
<path opacity="0.2" d="M1.03364 34.8265L0.906235 35.1724L7.97152 37.775L8.09892 37.4291L1.03364 34.8265Z" fill="black"/>
<path opacity="0.2" d="M1.03364 56.202L0.906235 56.5479L7.97152 59.1505L8.09892 58.8046L1.03364 56.202Z" fill="black"/>
<path opacity="0.2" d="M1.03364 79.0516L0.906235 79.3975L7.97152 82.0001L8.09892 81.6542L1.03364 79.0516Z" fill="black"/>
<path opacity="0.2" d="M4.73517 101.908L4.57573 102.24L8.01552 103.891L8.17496 103.559L4.73517 101.908Z" fill="black"/>
<path d="M48.4526 142.038C57.2517 142.038 64.3848 134.905 64.3848 126.106C64.3848 117.307 57.2517 110.174 48.4526 110.174C39.6536 110.174 32.5205 117.307 32.5205 126.106C32.5205 134.905 39.6536 142.038 48.4526 142.038Z" fill="#2F9E41"/>
<path d="M46.9343 132.832L42.1661 126.7L44.939 124.543L47.1967 127.446L54.8245 119.395L57.3751 121.811L46.9343 132.832Z" fill="white"/>
</g>
<defs>
<clipPath id="clip0_744_1918">
<rect width="186.286" height="220" fill="white"/>
</clipPath>
</defs>
</svg>
